<svg width="78" height="100" viewBox="0 0 78 100" fill="none" xmlns="http://www.w3.org/2000/svg">
<path d="M76.2275 24.2953L52.7906 0.858398C52.2436 0.311133 51.4969 0 50.7188 0H9.70312C4.85684 0 0.914062 3.94277 0.914062 8.78906V91.2109C0.914062 96.0572 4.85684 100 9.70312 100H68.2969C73.1432 100 77.0859 96.0572 77.0859 91.2109V26.3672C77.0859 25.5684 76.7506 24.8182 76.2275 24.2953ZM53.6484 10.0025L67.0834 23.4375H56.5781C54.9627 23.4375 53.6484 22.1232 53.6484 20.5078V10.0025ZM68.2969 94.1406H9.70312C8.0877 94.1406 6.77344 92.8264 6.77344 91.2109V8.78906C6.77344 7.17363 8.0877 5.85938 9.70312 5.85938H47.7891V20.5078C47.7891 25.3541 51.7318 29.2969 56.5781 29.2969H71.2266V91.2109C71.2266 92.8264 69.9123 94.1406 68.2969 94.1406Z" fill="#F1EBFF"/>
<path d="M56.5781 41.4062H21.4219C19.8039 41.4062 18.4922 42.718 18.4922 44.3359C18.4922 45.9539 19.8039 47.2656 21.4219 47.2656H56.5781C58.1961 47.2656 59.5078 45.9539 59.5078 44.3359C59.5078 42.718 58.1961 41.4062 56.5781 41.4062Z" fill="#F1EBFF"/>
<path d="M56.5781 53.125H21.4219C19.8039 53.125 18.4922 54.4367 18.4922 56.0547C18.4922 57.6727 19.8039 58.9844 21.4219 58.9844H56.5781C58.1961 58.9844 59.5078 57.6727 59.5078 56.0547C59.5078 54.4367 58.1961 53.125 56.5781 53.125Z" fill="#F1EBFF"/>
<path d="M56.5781 64.8438H21.4219C19.8039 64.8438 18.4922 66.1555 18.4922 67.7734C18.4922 69.3914 19.8039 70.7031 21.4219 70.7031H56.5781C58.1961 70.7031 59.5078 69.3914 59.5078 67.7734C59.5078 66.1555 58.1961 64.8438 56.5781 64.8438Z" fill="#F1EBFF"/>
<path d="M44.8594 76.5625H21.4219C19.8039 76.5625 18.4922 77.8742 18.4922 79.4922C18.4922 81.1102 19.8039 82.4219 21.4219 82.4219H44.8594C46.4773 82.4219 47.7891 81.1102 47.7891 79.4922C47.7891 77.8742 46.4773 76.5625 44.8594 76.5625Z" fill="#F1EBFF"/>
</svg>
